<svg width="114" height="30" viewBox="0 0 114 30" fill="none" xmlns="http://www.w3.org/2000/svg">
<g clip-path="url(#clip0_469_6668)">
<path fill-rule="evenodd" clip-rule="evenodd" d="M17.2169 29L1 12.9703L4.1821 9.94888L16.1091 21.6655L17.2169 29Z" fill="#F9B200"/>
<path d="M17.2169 29L1 12.9703L4.1821 9.94888L16.1091 21.6655L17.2169 29Z" stroke="#F9B200" stroke-width="0.608399" stroke-miterlimit="22.9256"/>
<path fill-rule="evenodd" clip-rule="evenodd" d="M35.0132 16.8221L31.784 19.9819L19.7627 8.12685L18.7963 1L35.0132 16.8221Z" fill="#F9B200"/>
<path d="M35.0132 16.8221L31.784 19.9819L19.7627 8.12685L18.7963 1L35.0132 16.8221Z" stroke="#F9B200" stroke-width="0.608399" stroke-miterlimit="22.9256"/>
<path fill-rule="evenodd" clip-rule="evenodd" d="M32.5383 14.3542L17.2171 29L16.1093 21.6656L27.9891 10.2027L32.5383 14.3542Z" fill="#FCBF00"/>
<path d="M32.5383 14.3542L17.2171 29L16.1093 21.6656L27.9891 10.2027L32.5383 14.3542Z" stroke="#FCBF00" stroke-width="0.608399" stroke-miterlimit="22.9256"/>
<path fill-rule="evenodd" clip-rule="evenodd" d="M6.89282 12.6013L11.0885 16.7529L19.7627 8.12685L18.7963 1L6.89282 12.6013Z" fill="#FFCC00"/>
<path d="M6.89282 12.6013L11.0885 16.7529L19.7627 8.12685L18.7963 1L6.89282 12.6013Z" stroke="#FFCC00" stroke-width="0.608399" stroke-miterlimit="22.9256"/>
<path d="M73.8818 24.8254C72.7033 25.1022 71.454 25.2175 70.1811 25.2175C65.0662 25.2175 62.4969 22.7727 62.4969 17.9061C62.4969 13.3855 65.0662 11.1252 70.1811 11.1252C71.454 11.1252 72.7033 11.2636 73.8818 11.5173V14.3312C72.7033 14.0544 71.5483 13.9391 70.4404 13.9391C67.5647 13.9391 66.1269 15.2537 66.1269 17.9061C66.1269 20.9045 67.5647 22.4037 70.4404 22.4037C71.5483 22.4037 72.6797 22.2653 73.8818 22.0116V24.8254Z" fill="white"/>
<path d="M50.7819 18.0906C50.7819 21.0429 51.9369 22.519 54.2705 22.519C56.604 22.519 57.759 21.0429 57.759 18.0906C57.759 15.2076 56.604 13.7776 54.2705 13.7776C51.9605 13.7776 50.7819 15.2307 50.7819 18.0906ZM47.152 18.1598C47.152 13.4317 49.5327 11.0791 54.294 11.0791C59.0554 11.0791 61.4361 13.4547 61.4361 18.1598C61.4361 22.8649 59.0554 25.2406 54.294 25.2406C49.5562 25.2406 47.1755 22.8649 47.152 18.1598Z" fill="white"/>
<path d="M45.3844 6.02805H41.7544V25.2175H45.3844V6.02805Z" fill="white"/>
<path d="M76.0503 11.3558H81.3302C82.5088 13.8006 83.1688 15.2998 83.2866 15.8764H83.3573C83.5223 15.0922 84.1823 13.593 85.3373 11.3558H90.6644L85.9737 18.4365L90.7115 25.425H85.5259C84.4888 23.3031 83.7816 21.7578 83.3809 20.7199H83.3102C83.2631 21.0659 82.9566 21.85 82.3909 23.0263L81.2359 25.4019H76.121L80.7409 18.4827L76.0503 11.3558Z" fill="white"/>
<path d="M113.976 23.1187L113.788 23.3262C113.623 23.1648 113.458 23.0956 113.316 23.0956C113.222 23.0956 113.128 23.1187 113.057 23.1878C112.986 23.257 112.939 23.3262 112.939 23.4185C112.939 23.4877 112.963 23.5569 113.034 23.6261C113.081 23.6953 113.222 23.7875 113.411 23.8798C113.646 23.9951 113.788 24.1104 113.882 24.2027C113.953 24.318 114 24.4333 114 24.5717C114 24.7562 113.929 24.9177 113.788 25.056C113.646 25.1944 113.481 25.2636 113.269 25.2636C113.128 25.2636 113.01 25.2406 112.869 25.1714C112.751 25.1022 112.633 25.033 112.562 24.9407L112.751 24.7332C112.916 24.8946 113.081 24.9869 113.246 24.9869C113.364 24.9869 113.481 24.9407 113.552 24.8715C113.646 24.8023 113.67 24.7101 113.67 24.5948C113.67 24.5025 113.646 24.4333 113.576 24.3641C113.529 24.2949 113.387 24.2257 113.199 24.1104C112.986 23.9951 112.845 23.9028 112.751 23.7875C112.68 23.6722 112.633 23.5569 112.633 23.4185C112.633 23.234 112.704 23.0956 112.821 22.9803C112.939 22.8649 113.104 22.7958 113.293 22.7958C113.552 22.8188 113.764 22.9111 113.976 23.1187ZM110.889 23.0956C110.724 23.0956 110.559 23.1417 110.417 23.2109C110.276 23.3032 110.158 23.3954 110.064 23.5569C109.969 23.6953 109.946 23.8567 109.946 24.0182C109.946 24.1796 109.993 24.3411 110.064 24.4794C110.158 24.6178 110.252 24.7331 110.417 24.8254C110.559 24.9177 110.724 24.9407 110.889 24.9407C111.054 24.9407 111.219 24.8946 111.36 24.8254C111.501 24.7331 111.619 24.6409 111.714 24.5025C111.784 24.3641 111.831 24.2027 111.831 24.0182C111.831 23.7414 111.737 23.5338 111.572 23.3493C111.36 23.1878 111.148 23.0956 110.889 23.0956ZM112.091 22.8649V25.1944H111.784V24.8023C111.666 24.9638 111.525 25.0791 111.36 25.1483C111.195 25.2175 111.03 25.2636 110.841 25.2636C110.511 25.2636 110.229 25.1483 109.993 24.9177C109.757 24.687 109.639 24.3872 109.639 24.0412C109.639 23.7183 109.757 23.4185 109.993 23.1878C110.229 22.9572 110.511 22.8419 110.865 22.8419C111.054 22.8419 111.242 22.888 111.384 22.9572C111.549 23.0264 111.69 23.1648 111.808 23.3262V22.888H112.091V22.8649ZM105.538 22.8649H105.844V23.257C105.962 23.1187 106.057 23.0033 106.174 22.9341C106.339 22.8419 106.481 22.7958 106.669 22.7958C106.787 22.7958 106.905 22.8188 106.999 22.8649C107.094 22.9111 107.188 22.9572 107.259 23.0495C107.329 23.1187 107.377 23.234 107.424 23.3724C107.518 23.1878 107.659 23.0495 107.801 22.9572C107.942 22.8649 108.107 22.8188 108.296 22.8188C108.461 22.8188 108.602 22.8649 108.72 22.9341C108.838 23.0264 108.932 23.1187 109.003 23.2801C109.074 23.4185 109.097 23.6491 109.097 23.9259V25.1944H108.791V23.9259C108.791 23.6722 108.767 23.5107 108.744 23.4185C108.697 23.3262 108.649 23.257 108.555 23.1878C108.461 23.1417 108.367 23.0956 108.249 23.0956C108.107 23.0956 107.966 23.1417 107.848 23.234C107.73 23.3262 107.636 23.4416 107.589 23.5799C107.542 23.7183 107.494 23.949 107.494 24.2949V25.1944H107.188V24.0182C107.188 23.7414 107.164 23.5569 107.141 23.4416C107.094 23.3493 107.047 23.257 106.952 23.2109C106.858 23.1417 106.764 23.1187 106.646 23.1187C106.504 23.1187 106.363 23.1648 106.245 23.234C106.127 23.3262 106.033 23.4185 105.962 23.5799C105.915 23.7183 105.868 23.9259 105.868 24.2257V25.2175H105.562V22.8649H105.538ZM104.642 23.7875C104.595 23.6261 104.548 23.5107 104.454 23.3954C104.383 23.3032 104.265 23.234 104.147 23.1648C104.029 23.0956 103.888 23.0725 103.747 23.0725C103.511 23.0725 103.322 23.1417 103.134 23.3032C103.016 23.4185 102.922 23.5799 102.851 23.7875H104.642ZM104.642 24.4103L104.902 24.5486C104.807 24.7101 104.713 24.8485 104.619 24.9407C104.501 25.033 104.383 25.1252 104.242 25.1714C104.1 25.2175 103.935 25.2406 103.77 25.2406C103.393 25.2406 103.087 25.1252 102.851 24.8715C102.639 24.6178 102.521 24.3411 102.521 24.0412C102.521 23.7414 102.615 23.4877 102.804 23.257C103.039 22.9572 103.346 22.8188 103.747 22.8188C104.147 22.8188 104.477 22.9803 104.713 23.257C104.878 23.4646 104.972 23.7414 104.972 24.0412H102.827C102.827 24.318 102.922 24.5256 103.087 24.7101C103.252 24.8715 103.464 24.9638 103.723 24.9638C103.841 24.9638 103.959 24.9407 104.077 24.8946C104.194 24.8485 104.289 24.8023 104.359 24.7332C104.477 24.687 104.548 24.5717 104.642 24.4103ZM101.389 22.0116H101.696V22.888H102.167V23.1417H101.696V25.1944H101.389V23.1417H100.989V22.888H101.413V22.0116H101.389ZM100.588 23.1187L100.399 23.3262C100.234 23.1648 100.069 23.0956 99.928 23.0956C99.8338 23.0956 99.7395 23.1187 99.6688 23.1878C99.598 23.257 99.5509 23.3262 99.5509 23.4185C99.5509 23.4877 99.5745 23.5569 99.6452 23.6261C99.6923 23.6953 99.8338 23.7875 100.022 23.8798C100.258 23.9951 100.399 24.1104 100.494 24.2027C100.564 24.318 100.612 24.4333 100.612 24.5717C100.612 24.7562 100.541 24.9177 100.399 25.056C100.258 25.1944 100.093 25.2636 99.8809 25.2636C99.7395 25.2636 99.6216 25.2406 99.4802 25.1714C99.3623 25.1022 99.2445 25.033 99.1738 24.9407L99.3623 24.7332C99.5273 24.8946 99.6923 24.9869 99.8573 24.9869C99.9752 24.9869 100.093 24.9407 100.164 24.8715C100.258 24.8023 100.282 24.7101 100.282 24.5948C100.282 24.5025 100.258 24.4333 100.187 24.3641C100.14 24.2949 99.9988 24.2257 99.8102 24.1104C99.598 23.9951 99.4566 23.9028 99.3623 23.7875C99.2916 23.6722 99.2445 23.5569 99.2445 23.4185C99.2445 23.234 99.3152 23.0956 99.433 22.9803C99.5509 22.8649 99.7159 22.7958 99.9045 22.7958C100.164 22.8188 100.376 22.9111 100.588 23.1187ZM98.4666 22.8649H98.7731V25.1944H98.4666V22.8649ZM98.6081 21.9193C98.6788 21.9193 98.7259 21.9424 98.7966 21.9885C98.8438 22.0346 98.8673 22.1038 98.8673 22.173C98.8673 22.2422 98.8438 22.2883 98.7966 22.3575C98.7495 22.4037 98.6788 22.4267 98.6081 22.4267C98.5373 22.4267 98.4902 22.4037 98.4431 22.3575C98.3959 22.3114 98.3723 22.2422 98.3723 22.173C98.3723 22.1038 98.3959 22.0577 98.4431 21.9885C98.4902 21.9424 98.5373 21.9193 98.6081 21.9193ZM97.9716 23.1187L97.7831 23.3262C97.6181 23.1648 97.4531 23.0956 97.3116 23.0956C97.2174 23.0956 97.1231 23.1187 97.0524 23.1878C96.9816 23.257 96.9345 23.3262 96.9345 23.4185C96.9345 23.4877 96.9581 23.5569 97.0288 23.6261C97.0759 23.6953 97.2174 23.7875 97.4059 23.8798C97.6416 23.9951 97.7831 24.1104 97.8774 24.2027C97.9481 24.318 97.9952 24.4333 97.9952 24.5717C97.9952 24.7562 97.9245 24.9177 97.7831 25.056C97.6416 25.1944 97.4766 25.2636 97.2645 25.2636C97.1231 25.2636 97.0052 25.2406 96.8638 25.1714C96.7459 25.1022 96.6281 25.033 96.5574 24.9407L96.7459 24.7332C96.9109 24.8946 97.0759 24.9869 97.2409 24.9869C97.3588 24.9869 97.4766 24.9407 97.5474 24.8715C97.6416 24.8023 97.6652 24.7101 97.6652 24.5948C97.6652 24.5025 97.6416 24.4333 97.5709 24.3641C97.5238 24.2949 97.3824 24.2257 97.1938 24.1104C96.9816 23.9951 96.8402 23.9028 96.7459 23.7875C96.6752 23.6722 96.6281 23.5569 96.6281 23.4185C96.6281 23.234 96.6988 23.0956 96.8166 22.9803C96.9345 22.8649 97.0995 22.7958 97.2881 22.7958C97.5238 22.8188 97.7595 22.9111 97.9716 23.1187Z" fill="white"/>
<path d="M92.6536 6.12215L92.4235 27.8926L92.5649 27.894L92.7951 6.12358L92.6536 6.12215Z" fill="white"/>
<path d="M97.9243 10.7102H100.753C101.884 10.7102 102.804 10.9869 103.464 11.5636C104.124 12.1402 104.454 12.9013 104.454 13.87C104.454 14.3774 104.336 14.8387 104.076 15.323C103.817 15.7843 103.464 16.1303 102.969 16.384L104.901 21.0199H102.332L100.376 16.3378H100.329V20.9738H97.9243V10.7102ZM100.352 12.6937V15.1385C101.436 15.1154 101.955 14.7464 101.955 14.0545C101.955 13.5701 101.837 13.2472 101.578 13.0397C101.342 12.809 100.918 12.6937 100.352 12.6937Z" fill="white"/>
<path d="M106.269 10.71H111.171V12.9011H108.697V14.7924H110.841V16.9143H108.697V18.7825H111.195V20.9736H106.269V10.71Z" fill="white"/>
</g>
<defs>
<clipPath id="clip0_469_6668">
<rect width="114" height="30" fill="white"/>
</clipPath>
</defs>
</svg>
